<mxfile host="app.diagrams.net" modified="2021-02-07T16:10:06.281Z" agent="5.0 (Windows)" etag="tB4uBKkXwnhCc8Btzatw" version="14.2.9" type="github">
  <diagram id="R2lEEEUBdFMjLlhIrx00" name="Page-1">
    <mxGraphModel dx="1422" dy="763" grid="1" gridSize="10" guides="1" tooltips="1" connect="1" arrows="1" fold="1" page="1" pageScale="1" pageWidth="850" pageHeight="1100" math="0" shadow="0" extFonts="Permanent Marker^https://fonts.googleapis.com/css?family=Permanent+Marker">
      <root>
        <mxCell id="0" />
        <mxCell id="1" parent="0" />
        <mxCell id="31gcn15Ylly1eSXyBsKH-1" value="&lt;div&gt;Produkt&lt;/div&gt;" style="rounded=0;whiteSpace=wrap;html=1;" parent="1" vertex="1">
          <mxGeometry x="250" y="120" width="120" height="60" as="geometry" />
        </mxCell>
        <mxCell id="31gcn15Ylly1eSXyBsKH-2" value="Kategori" style="rounded=0;whiteSpace=wrap;html=1;" parent="1" vertex="1">
          <mxGeometry x="50" y="240" width="120" height="60" as="geometry" />
        </mxCell>
        <mxCell id="31gcn15Ylly1eSXyBsKH-3" value="Kund" style="rounded=0;whiteSpace=wrap;html=1;" parent="1" vertex="1">
          <mxGeometry x="560" y="200" width="120" height="60" as="geometry" />
        </mxCell>
        <mxCell id="31gcn15Ylly1eSXyBsKH-4" value="&lt;div&gt;Best채llning&lt;/div&gt;" style="rounded=0;whiteSpace=wrap;html=1;" parent="1" vertex="1">
          <mxGeometry x="560" y="380" width="120" height="60" as="geometry" />
        </mxCell>
        <mxCell id="31gcn15Ylly1eSXyBsKH-5" value="Storlek" style="ellipse;whiteSpace=wrap;html=1;" parent="1" vertex="1">
          <mxGeometry x="100" y="30" width="90" height="50" as="geometry" />
        </mxCell>
        <mxCell id="31gcn15Ylly1eSXyBsKH-6" value="F채rg" style="ellipse;whiteSpace=wrap;html=1;" parent="1" vertex="1">
          <mxGeometry x="200" y="30" width="90" height="50" as="geometry" />
        </mxCell>
        <mxCell id="31gcn15Ylly1eSXyBsKH-7" value="Pris" style="ellipse;whiteSpace=wrap;html=1;" parent="1" vertex="1">
          <mxGeometry x="300" y="30" width="90" height="50" as="geometry" />
        </mxCell>
        <mxCell id="31gcn15Ylly1eSXyBsKH-8" value="M채rke" style="ellipse;whiteSpace=wrap;html=1;" parent="1" vertex="1">
          <mxGeometry x="400" y="30" width="90" height="50" as="geometry" />
        </mxCell>
        <mxCell id="31gcn15Ylly1eSXyBsKH-10" value="" style="endArrow=none;html=1;entryX=0.778;entryY=1;entryDx=0;entryDy=0;entryPerimeter=0;exitX=0;exitY=0.25;exitDx=0;exitDy=0;" parent="1" source="31gcn15Ylly1eSXyBsKH-1" target="31gcn15Ylly1eSXyBsKH-5" edge="1">
          <mxGeometry width="50" height="50" relative="1" as="geometry">
            <mxPoint x="400" y="170" as="sourcePoint" />
            <mxPoint x="450" y="120" as="targetPoint" />
          </mxGeometry>
        </mxCell>
        <mxCell id="31gcn15Ylly1eSXyBsKH-11" value="" style="endArrow=none;html=1;entryX=0.5;entryY=1;entryDx=0;entryDy=0;exitX=0.125;exitY=0.017;exitDx=0;exitDy=0;exitPerimeter=0;" parent="1" source="31gcn15Ylly1eSXyBsKH-1" target="31gcn15Ylly1eSXyBsKH-6" edge="1">
          <mxGeometry width="50" height="50" relative="1" as="geometry">
            <mxPoint x="250" y="130" as="sourcePoint" />
            <mxPoint x="300" y="80" as="targetPoint" />
          </mxGeometry>
        </mxCell>
        <mxCell id="31gcn15Ylly1eSXyBsKH-12" value="" style="endArrow=none;html=1;entryX=0.344;entryY=1;entryDx=0;entryDy=0;entryPerimeter=0;exitX=0.6;exitY=-0.017;exitDx=0;exitDy=0;exitPerimeter=0;" parent="1" source="31gcn15Ylly1eSXyBsKH-1" target="31gcn15Ylly1eSXyBsKH-7" edge="1">
          <mxGeometry width="50" height="50" relative="1" as="geometry">
            <mxPoint x="420" y="180" as="sourcePoint" />
            <mxPoint x="470" y="130" as="targetPoint" />
          </mxGeometry>
        </mxCell>
        <mxCell id="31gcn15Ylly1eSXyBsKH-13" value="" style="endArrow=none;html=1;entryX=0.244;entryY=1;entryDx=0;entryDy=0;entryPerimeter=0;exitX=1.017;exitY=0.15;exitDx=0;exitDy=0;exitPerimeter=0;" parent="1" source="31gcn15Ylly1eSXyBsKH-1" target="31gcn15Ylly1eSXyBsKH-8" edge="1">
          <mxGeometry width="50" height="50" relative="1" as="geometry">
            <mxPoint x="400" y="220" as="sourcePoint" />
            <mxPoint x="450" y="170" as="targetPoint" />
          </mxGeometry>
        </mxCell>
        <mxCell id="31gcn15Ylly1eSXyBsKH-15" value="&lt;u&gt;Id&lt;/u&gt;" style="ellipse;whiteSpace=wrap;html=1;" parent="1" vertex="1">
          <mxGeometry y="30" width="90" height="50" as="geometry" />
        </mxCell>
        <mxCell id="31gcn15Ylly1eSXyBsKH-16" value="" style="endArrow=none;html=1;exitX=0;exitY=0.5;exitDx=0;exitDy=0;" parent="1" source="31gcn15Ylly1eSXyBsKH-1" target="31gcn15Ylly1eSXyBsKH-15" edge="1">
          <mxGeometry width="50" height="50" relative="1" as="geometry">
            <mxPoint x="120" y="180" as="sourcePoint" />
            <mxPoint x="170" y="130" as="targetPoint" />
          </mxGeometry>
        </mxCell>
        <mxCell id="31gcn15Ylly1eSXyBsKH-18" value="&lt;u&gt;Id&lt;/u&gt;" style="ellipse;whiteSpace=wrap;html=1;" parent="1" vertex="1">
          <mxGeometry y="150" width="90" height="50" as="geometry" />
        </mxCell>
        <mxCell id="31gcn15Ylly1eSXyBsKH-19" value="" style="endArrow=none;html=1;entryX=0.5;entryY=1;entryDx=0;entryDy=0;exitX=0.075;exitY=-0.05;exitDx=0;exitDy=0;exitPerimeter=0;" parent="1" source="31gcn15Ylly1eSXyBsKH-2" target="31gcn15Ylly1eSXyBsKH-18" edge="1">
          <mxGeometry width="50" height="50" relative="1" as="geometry">
            <mxPoint y="270" as="sourcePoint" />
            <mxPoint x="50" y="220" as="targetPoint" />
          </mxGeometry>
        </mxCell>
        <mxCell id="31gcn15Ylly1eSXyBsKH-21" value="Namn" style="ellipse;whiteSpace=wrap;html=1;" parent="1" vertex="1">
          <mxGeometry x="10" y="360" width="90" height="50" as="geometry" />
        </mxCell>
        <mxCell id="31gcn15Ylly1eSXyBsKH-22" value="" style="endArrow=none;html=1;exitX=0.611;exitY=-0.06;exitDx=0;exitDy=0;exitPerimeter=0;entryX=0.25;entryY=1;entryDx=0;entryDy=0;" parent="1" source="31gcn15Ylly1eSXyBsKH-21" target="31gcn15Ylly1eSXyBsKH-2" edge="1">
          <mxGeometry width="50" height="50" relative="1" as="geometry">
            <mxPoint x="180" y="410" as="sourcePoint" />
            <mxPoint x="230" y="360" as="targetPoint" />
          </mxGeometry>
        </mxCell>
        <mxCell id="31gcn15Ylly1eSXyBsKH-23" value="Av typ" style="rhombus;whiteSpace=wrap;html=1;rotation=-30;" parent="1" vertex="1">
          <mxGeometry x="220" y="230" width="70" height="45.23" as="geometry" />
        </mxCell>
        <mxCell id="31gcn15Ylly1eSXyBsKH-24" value="M" style="endArrow=none;html=1;exitX=1;exitY=0.5;exitDx=0;exitDy=0;entryX=0;entryY=0.5;entryDx=0;entryDy=0;" parent="1" source="31gcn15Ylly1eSXyBsKH-2" target="31gcn15Ylly1eSXyBsKH-23" edge="1">
          <mxGeometry width="50" height="50" relative="1" as="geometry">
            <mxPoint x="190" y="360" as="sourcePoint" />
            <mxPoint x="240" y="310" as="targetPoint" />
          </mxGeometry>
        </mxCell>
        <mxCell id="31gcn15Ylly1eSXyBsKH-28" value="&lt;u&gt;Id&lt;/u&gt;" style="ellipse;whiteSpace=wrap;html=1;" parent="1" vertex="1">
          <mxGeometry x="470" y="80" width="90" height="50" as="geometry" />
        </mxCell>
        <mxCell id="31gcn15Ylly1eSXyBsKH-29" value="" style="endArrow=none;html=1;entryX=0.5;entryY=1;entryDx=0;entryDy=0;exitX=0.2;exitY=0;exitDx=0;exitDy=0;exitPerimeter=0;" parent="1" source="31gcn15Ylly1eSXyBsKH-3" target="31gcn15Ylly1eSXyBsKH-28" edge="1">
          <mxGeometry width="50" height="50" relative="1" as="geometry">
            <mxPoint x="630" y="150" as="sourcePoint" />
            <mxPoint x="680" y="100" as="targetPoint" />
          </mxGeometry>
        </mxCell>
        <mxCell id="GIeMNUpH18VMJX1TjUhp-2" value="Datum" style="ellipse;whiteSpace=wrap;html=1;" vertex="1" parent="1">
          <mxGeometry x="460" y="520" width="90" height="50" as="geometry" />
        </mxCell>
        <mxCell id="GIeMNUpH18VMJX1TjUhp-3" value="" style="endArrow=none;html=1;exitX=0.733;exitY=0.02;exitDx=0;exitDy=0;exitPerimeter=0;entryX=0;entryY=1;entryDx=0;entryDy=0;" edge="1" parent="1" source="GIeMNUpH18VMJX1TjUhp-2" target="31gcn15Ylly1eSXyBsKH-4">
          <mxGeometry width="50" height="50" relative="1" as="geometry">
            <mxPoint x="380" y="480" as="sourcePoint" />
            <mxPoint x="430" y="430" as="targetPoint" />
          </mxGeometry>
        </mxCell>
        <mxCell id="GIeMNUpH18VMJX1TjUhp-4" value="Har best채llt" style="rhombus;whiteSpace=wrap;html=1;" vertex="1" parent="1">
          <mxGeometry x="600" y="290" width="80" height="43" as="geometry" />
        </mxCell>
        <mxCell id="GIeMNUpH18VMJX1TjUhp-5" value="N" style="shape=link;html=1;rounded=0;entryX=0.433;entryY=1;entryDx=0;entryDy=0;entryPerimeter=0;" edge="1" parent="1" target="31gcn15Ylly1eSXyBsKH-1">
          <mxGeometry relative="1" as="geometry">
            <mxPoint x="280" y="230" as="sourcePoint" />
            <mxPoint x="350" y="260" as="targetPoint" />
          </mxGeometry>
        </mxCell>
        <mxCell id="GIeMNUpH18VMJX1TjUhp-6" value="" style="resizable=0;html=1;align=right;verticalAlign=bottom;" connectable="0" vertex="1" parent="GIeMNUpH18VMJX1TjUhp-5">
          <mxGeometry x="1" relative="1" as="geometry" />
        </mxCell>
        <mxCell id="GIeMNUpH18VMJX1TjUhp-7" value="1" style="endArrow=none;html=1;exitX=0.5;exitY=0;exitDx=0;exitDy=0;entryX=0.642;entryY=1.017;entryDx=0;entryDy=0;entryPerimeter=0;" edge="1" parent="1" source="GIeMNUpH18VMJX1TjUhp-4" target="31gcn15Ylly1eSXyBsKH-3">
          <mxGeometry width="50" height="50" relative="1" as="geometry">
            <mxPoint x="480" y="220" as="sourcePoint" />
            <mxPoint x="530" y="170" as="targetPoint" />
          </mxGeometry>
        </mxCell>
        <mxCell id="GIeMNUpH18VMJX1TjUhp-8" value="N" style="endArrow=none;html=1;entryX=0.892;entryY=1.017;entryDx=0;entryDy=0;exitX=0.5;exitY=0;exitDx=0;exitDy=0;entryPerimeter=0;" edge="1" parent="1" source="GIeMNUpH18VMJX1TjUhp-11" target="31gcn15Ylly1eSXyBsKH-1">
          <mxGeometry width="50" height="50" relative="1" as="geometry">
            <mxPoint x="360" y="240" as="sourcePoint" />
            <mxPoint x="480" y="160" as="targetPoint" />
          </mxGeometry>
        </mxCell>
        <mxCell id="GIeMNUpH18VMJX1TjUhp-9" value="M" style="endArrow=none;html=1;entryX=0.5;entryY=1;entryDx=0;entryDy=0;exitX=0.433;exitY=0.017;exitDx=0;exitDy=0;exitPerimeter=0;" edge="1" parent="1" source="31gcn15Ylly1eSXyBsKH-4" target="GIeMNUpH18VMJX1TjUhp-4">
          <mxGeometry width="50" height="50" relative="1" as="geometry">
            <mxPoint x="320" y="330" as="sourcePoint" />
            <mxPoint x="370" y="280" as="targetPoint" />
          </mxGeometry>
        </mxCell>
        <mxCell id="GIeMNUpH18VMJX1TjUhp-11" value="Best채llningsrad" style="rhombus;whiteSpace=wrap;html=1;" vertex="1" parent="1">
          <mxGeometry x="330" y="300" width="110" height="53" as="geometry" />
        </mxCell>
        <mxCell id="GIeMNUpH18VMJX1TjUhp-12" value="1" style="endArrow=none;html=1;entryX=0.5;entryY=1;entryDx=0;entryDy=0;exitX=0;exitY=0;exitDx=0;exitDy=0;" edge="1" parent="1" source="31gcn15Ylly1eSXyBsKH-4" target="GIeMNUpH18VMJX1TjUhp-11">
          <mxGeometry width="50" height="50" relative="1" as="geometry">
            <mxPoint x="290" y="370" as="sourcePoint" />
            <mxPoint x="340" y="320" as="targetPoint" />
          </mxGeometry>
        </mxCell>
        <mxCell id="GIeMNUpH18VMJX1TjUhp-14" value="&lt;u&gt;Id&lt;/u&gt;" style="ellipse;whiteSpace=wrap;html=1;" vertex="1" parent="1">
          <mxGeometry x="350" y="520" width="90" height="50" as="geometry" />
        </mxCell>
        <mxCell id="GIeMNUpH18VMJX1TjUhp-15" value="" style="endArrow=none;html=1;entryX=-0.008;entryY=0.617;entryDx=0;entryDy=0;entryPerimeter=0;exitX=1;exitY=0;exitDx=0;exitDy=0;" edge="1" parent="1" source="GIeMNUpH18VMJX1TjUhp-14" target="31gcn15Ylly1eSXyBsKH-4">
          <mxGeometry width="50" height="50" relative="1" as="geometry">
            <mxPoint x="290" y="410" as="sourcePoint" />
            <mxPoint x="340" y="360" as="targetPoint" />
          </mxGeometry>
        </mxCell>
        <mxCell id="GIeMNUpH18VMJX1TjUhp-16" value="KundId" style="ellipse;whiteSpace=wrap;html=1;" vertex="1" parent="1">
          <mxGeometry x="575" y="520" width="90" height="50" as="geometry" />
        </mxCell>
        <mxCell id="GIeMNUpH18VMJX1TjUhp-17" value="Ort" style="ellipse;whiteSpace=wrap;html=1;" vertex="1" parent="1">
          <mxGeometry x="570" y="80" width="90" height="50" as="geometry" />
        </mxCell>
        <mxCell id="GIeMNUpH18VMJX1TjUhp-18" value="" style="endArrow=none;html=1;exitX=0.5;exitY=0;exitDx=0;exitDy=0;entryX=0.325;entryY=1;entryDx=0;entryDy=0;entryPerimeter=0;" edge="1" parent="1" source="GIeMNUpH18VMJX1TjUhp-16" target="31gcn15Ylly1eSXyBsKH-4">
          <mxGeometry width="50" height="50" relative="1" as="geometry">
            <mxPoint x="410" y="490" as="sourcePoint" />
            <mxPoint x="460" y="440" as="targetPoint" />
          </mxGeometry>
        </mxCell>
        <mxCell id="GIeMNUpH18VMJX1TjUhp-24" value="" style="endArrow=none;html=1;entryX=0.5;entryY=1;entryDx=0;entryDy=0;exitX=0.5;exitY=0;exitDx=0;exitDy=0;" edge="1" parent="1" source="31gcn15Ylly1eSXyBsKH-3" target="GIeMNUpH18VMJX1TjUhp-17">
          <mxGeometry width="50" height="50" relative="1" as="geometry">
            <mxPoint x="730" y="180" as="sourcePoint" />
            <mxPoint x="780" y="130" as="targetPoint" />
          </mxGeometry>
        </mxCell>
        <mxCell id="GIeMNUpH18VMJX1TjUhp-25" value="F철rnamn" style="ellipse;whiteSpace=wrap;html=1;" vertex="1" parent="1">
          <mxGeometry x="670" y="80" width="90" height="50" as="geometry" />
        </mxCell>
        <mxCell id="GIeMNUpH18VMJX1TjUhp-26" value="" style="endArrow=none;html=1;entryX=0.267;entryY=1;entryDx=0;entryDy=0;entryPerimeter=0;exitX=0.808;exitY=-0.017;exitDx=0;exitDy=0;exitPerimeter=0;" edge="1" parent="1" source="31gcn15Ylly1eSXyBsKH-3" target="GIeMNUpH18VMJX1TjUhp-25">
          <mxGeometry width="50" height="50" relative="1" as="geometry">
            <mxPoint x="750" y="240" as="sourcePoint" />
            <mxPoint x="800" y="190" as="targetPoint" />
          </mxGeometry>
        </mxCell>
        <mxCell id="GIeMNUpH18VMJX1TjUhp-27" value="Efternamn" style="ellipse;whiteSpace=wrap;html=1;" vertex="1" parent="1">
          <mxGeometry x="750" y="130" width="90" height="50" as="geometry" />
        </mxCell>
        <mxCell id="GIeMNUpH18VMJX1TjUhp-28" value="" style="endArrow=none;html=1;exitX=1;exitY=0.25;exitDx=0;exitDy=0;" edge="1" parent="1" source="31gcn15Ylly1eSXyBsKH-3" target="GIeMNUpH18VMJX1TjUhp-27">
          <mxGeometry width="50" height="50" relative="1" as="geometry">
            <mxPoint x="750" y="310" as="sourcePoint" />
            <mxPoint x="800" y="260" as="targetPoint" />
          </mxGeometry>
        </mxCell>
      </root>
    </mxGraphModel>
  </diagram>
</mxfile>
